<svg width="24" height="24" viewBox="0 0 24 24" fill="none" xmlns="http://www.w3.org/2000/svg">
<path fill-rule="evenodd" clip-rule="evenodd" d="M16.3443 3.60204C16.571 3.5854 16.7954 3.65472 16.9682 3.79475L19.6999 6.385C19.794 6.46118 19.8696 6.55575 19.9214 6.66221C19.9732 6.76866 20 6.88448 20 7.00168C20 7.11889 19.9732 7.23471 19.9214 7.34117C19.8696 7.44762 19.794 7.54219 19.6999 7.61837L16.9682 10.2027C16.7954 10.3427 16.571 10.412 16.3443 10.3954C16.1175 10.3787 15.907 10.2775 15.7591 10.1139C15.6112 9.95039 15.538 9.73792 15.5556 9.52325C15.5731 9.30859 15.6801 9.10932 15.8528 8.9693L17.1198 7.81311H7.90499C7.32396 7.81311 6.76673 8.03162 6.35588 8.42058C5.94503 8.80953 5.71422 9.33706 5.71422 9.88712V10.7883C5.71422 11.0036 5.62392 11.2099 5.46318 11.3621C5.30244 11.5143 5.08443 11.5998 4.85711 11.5998C4.62979 11.5998 4.41178 11.5143 4.25104 11.3621C4.0903 11.2099 4 11.0036 4 10.7883V9.88712C4 9.40155 4.10104 8.92074 4.29736 8.47214C4.49367 8.02355 4.78142 7.61596 5.14415 7.27266C5.50688 6.92936 5.9375 6.65708 6.4114 6.47136C6.88531 6.28564 7.39322 6.19012 7.90613 6.19026H17.1198L15.8528 5.02812C15.6801 4.88809 15.5731 4.68883 15.5556 4.47416C15.538 4.2595 15.6112 4.04702 15.7591 3.88346C15.907 3.71991 16.1175 3.61868 16.3443 3.60204ZM7.65575 20.3979C7.429 20.4145 7.20456 20.3452 7.03179 20.2052L4.30006 17.6149C4.20596 17.5388 4.13042 17.4442 4.07862 17.3377C4.02682 17.2313 4 17.1155 4 16.9983C4 16.8811 4.02682 16.7652 4.07862 16.6588C4.13042 16.5523 4.20596 16.4578 4.30006 16.3816L7.03179 13.7973C7.20456 13.6573 7.429 13.5879 7.65575 13.6046C7.8825 13.6212 8.09298 13.7224 8.24089 13.886C8.3888 14.0496 8.46202 14.262 8.44444 14.4767C8.42687 14.6914 8.31994 14.8906 8.14718 15.0306L6.88022 16.1868H16.095C16.676 16.1868 17.2333 15.9683 17.6441 15.5794C18.055 15.1904 18.2858 14.6629 18.2858 14.1128V13.2116C18.2858 12.9964 18.3761 12.79 18.5368 12.6378C18.6976 12.4857 18.9156 12.4002 19.1429 12.4002C19.3702 12.4002 19.5882 12.4857 19.749 12.6378C19.9097 12.79 20 12.9964 20 13.2116V14.1128C20 14.5984 19.899 15.0792 19.7026 15.5278C19.5063 15.9764 19.2186 16.384 18.8559 16.7273C18.4931 17.0706 18.0625 17.3429 17.5886 17.5286C17.1147 17.7143 16.6068 17.8098 16.0939 17.8097H6.88022L8.14718 18.9718C8.31994 19.1119 8.42687 19.3111 8.44444 19.5258C8.46202 19.7404 8.3888 19.9529 8.24089 20.1165C8.09298 20.28 7.8825 20.3813 7.65575 20.3979Z" fill="#969696"/>
</svg>
