<svg width="24" height="24" viewBox="0 0 24 24" fill="none" xmlns="http://www.w3.org/2000/svg">
<path fill-rule="evenodd" clip-rule="evenodd" d="M20.7373 6.41648C20.8209 6.49879 20.8873 6.59659 20.9326 6.70428L21.001 7.04449C21.001 7.16121 20.9776 7.27679 20.9322 7.38456C20.8868 7.49234 20.8202 7.59019 20.7364 7.6725L18.0364 10.3373C17.8666 10.4991 17.6393 10.5887 17.4033 10.5866C17.1673 10.5846 16.9416 10.4912 16.7747 10.3265C16.6079 10.1618 16.5132 9.93902 16.5112 9.70612C16.5091 9.47322 16.5998 9.24884 16.7638 9.0813L17.9266 7.93276H14.9386C14.4725 7.93304 14.0144 8.05237 13.609 8.27917C13.2035 8.50597 12.8644 8.83249 12.6247 9.22698L10.9747 11.9404L12.6247 14.6539C12.8644 15.0484 13.2035 15.3749 13.609 15.6017C14.0144 15.8285 14.4725 15.9478 14.9386 15.9481H17.9266L16.7638 14.7996C16.5998 14.632 16.5091 14.4076 16.5112 14.1747C16.5132 13.9418 16.6079 13.719 16.7747 13.5544C16.9416 13.3897 17.1673 13.2962 17.4033 13.2942C17.6393 13.2922 17.8666 13.3817 18.0364 13.5435L20.7364 16.2084C20.8202 16.2907 20.8868 16.3885 20.9322 16.4963C20.9776 16.6041 21.001 16.7196 21.001 16.8364L20.9326 17.1766C20.8873 17.2843 20.8209 17.3821 20.7373 17.4644L18.0373 20.1292C17.9542 20.2141 17.8549 20.2817 17.7451 20.3283C17.6353 20.3748 17.5172 20.3993 17.3977 20.4004C17.2782 20.4014 17.1597 20.3789 17.0491 20.3342C16.9385 20.2896 16.838 20.2236 16.7535 20.1402C16.669 20.0568 16.6022 19.9576 16.5569 19.8485C16.5117 19.7393 16.4889 19.6223 16.4899 19.5044C16.491 19.3865 16.5158 19.2699 16.563 19.1615C16.6101 19.0531 16.6787 18.9551 16.7647 18.8732L17.9284 17.7246H14.9395C14.1623 17.7247 13.3983 17.526 12.722 17.1481C12.0457 16.7701 11.4801 16.2257 11.0803 15.5679L9.92456 13.6673L9.32168 14.6588C8.92188 15.3166 7.67757 17.0455 7.00126 17.4234C6.32494 17.8014 5.56097 18 4.78377 18H3.22227C2.98357 18 2.75465 17.9064 2.58587 17.7398C2.41709 17.5732 2.32227 17.3473 2.32227 17.1117C2.32227 16.8761 2.41709 16.6502 2.58587 16.4836C2.75465 16.317 2.98357 16.2234 3.22227 16.2234H4.78467C5.25073 16.2232 5.70879 16.1038 6.11427 15.877C6.51976 15.6502 7.53756 14.1392 7.77728 13.7448L8.87445 11.9404L7.77728 10.1361C7.53756 9.74162 6.51976 8.23061 6.11427 8.00382C5.70879 7.77702 5.25073 7.65768 4.78467 7.65741H3.22227C2.98357 7.65741 2.75465 7.56383 2.58587 7.39724C2.41709 7.23066 2.32227 7.00472 2.32227 6.76914C2.32227 6.53355 2.41709 6.30761 2.58587 6.14103C2.75465 5.97445 2.98357 5.88086 3.22227 5.88086H4.78377C5.56097 5.88082 6.32494 6.07946 7.00126 6.45742C7.67757 6.83538 8.92188 8.56426 9.32168 9.22207L9.92456 10.2135L11.0803 8.31295C11.4801 7.65513 12.0457 7.11073 12.722 6.73277C13.3983 6.35481 14.1623 6.15617 14.9395 6.15621H17.9284L16.7647 5.00767C16.6787 4.92573 16.6101 4.82771 16.563 4.71934C16.5158 4.61097 16.491 4.49441 16.4899 4.37646C16.4889 4.25852 16.5117 4.14155 16.5569 4.03238C16.6022 3.92322 16.669 3.82404 16.7535 3.74064C16.838 3.65724 16.9385 3.59128 17.0491 3.54662C17.1597 3.50195 17.2782 3.47948 17.3977 3.4805C17.5172 3.48153 17.6353 3.50603 17.7451 3.55259C17.8549 3.59914 17.9542 3.66681 18.0373 3.75165L20.7373 6.41648ZM21.001 16.839L20.9326 17.1766C20.9775 17.0696 21.0008 16.9549 21.001 16.839ZM21.001 7.04182L20.9326 6.70428C20.9775 6.81129 21.0008 6.92597 21.001 7.04182Z" fill="#2A4EFF"/>
</svg>
