<svg width="24" height="24" viewBox="0 0 24 24" fill="none" xmlns="http://www.w3.org/2000/svg">
<path d="M21.0001 11.175H4.9876L11.3626 4.6875C11.7001 4.35 11.7001 3.825 11.3626 3.4875C11.0251 3.15 10.5001 3.15 10.1626 3.4875L2.4001 11.3625C2.0626 11.7 2.0626 12.225 2.4001 12.5625L10.1626 20.4375C10.3126 20.5875 10.5376 20.7 10.7626 20.7C10.9876 20.7 11.1751 20.625 11.3626 20.475C11.7001 20.1375 11.7001 19.6125 11.3626 19.275L5.0251 12.8625H21.0001C21.4501 12.8625 21.8251 12.4875 21.8251 12.0375C21.8251 11.55 21.4501 11.175 21.0001 11.175Z" fill="#FAFAFA"/>
</svg>
