<svg width="17" height="18" viewBox="0 0 17 18" fill="none" xmlns="http://www.w3.org/2000/svg">
<path fill-rule="evenodd" clip-rule="evenodd" d="M0.560117 14.9061C-0.024436 15.4941 -0.0244359 16.4473 0.560117 17.0353C1.14467 17.6232 2.09242 17.6232 2.67697 17.0353L8.48886 11.1896L14.3361 17.0596C14.9212 17.647 15.8699 17.647 16.455 17.0596C17.0401 16.4722 17.0401 15.5199 16.455 14.9325L10.6057 9.06041L16.5615 3.07001C17.146 2.48206 17.146 1.5288 16.5615 0.940843C15.9769 0.35289 15.0292 0.352889 14.4446 0.940843L8.48684 6.93328L2.55722 0.980556C1.97211 0.393164 1.02346 0.393165 0.438346 0.980556C-0.146766 1.56795 -0.146766 2.5203 0.438345 3.10769L6.36999 9.06244L0.560117 14.9061Z" fill="currentColor" fill-opacity="0.7"/>
</svg>
